<svg id="Layer_1" data-name="Layer 1" xmlns="http://www.w3.org/2000/svg" viewBox="0 0 512 512"><defs><style>.cls-1{fill:#3eb38a;}.cls-2{fill:#141f38;}.cls-3{fill:#f9c882;}.cls-4{fill:#d1e1e8;}</style></defs><title>users-chat-bubble-filled</title><path class="cls-1" d="M256,124.72H137.85a65.64,65.64,0,0,0-65.64,65.64v52.51a65.66,65.66,0,0,0,52.51,64.32V361l52.51-52.51H256a65.64,65.64,0,0,0,65.64-65.64V190.36A65.64,65.64,0,0,0,256,124.72Z"/><path class="cls-2" d="M124.72,367.59a6.56,6.56,0,0,1-6.56-6.56V312.35a72.44,72.44,0,0,1-52.51-69.48V190.36a72.29,72.29,0,0,1,72.2-72.21H256a72.29,72.29,0,0,1,72.2,72.21v52.51A72.29,72.29,0,0,1,256,315.08H180l-50.59,50.59A6.56,6.56,0,0,1,124.72,367.59Zm13.13-236.31a59.14,59.14,0,0,0-59.08,59.08v52.51A59.23,59.23,0,0,0,126,300.76a6.56,6.56,0,0,1,5.26,6.43v38l41.31-41.31a6.56,6.56,0,0,1,4.64-1.92H256a59.14,59.14,0,0,0,59.08-59.08V190.36A59.14,59.14,0,0,0,256,131.28Z"/><path class="cls-3" d="M229.74,6.56H387.28a65.64,65.64,0,0,1,65.64,65.64V151a65.66,65.66,0,0,1-52.51,64.32v53.83L347.9,216.62H229.74A65.64,65.64,0,0,1,164.1,151V72.21A65.64,65.64,0,0,1,229.74,6.56Z"/><path class="cls-2" d="M400.41,275.69a6.56,6.56,0,0,1-4.64-1.92l-50.59-50.59H229.74A72.29,72.29,0,0,1,157.54,151V72.21A72.29,72.29,0,0,1,229.74,0H387.28a72.29,72.29,0,0,1,72.2,72.21V151A72.44,72.44,0,0,1,407,220.46v48.67a6.56,6.56,0,0,1-6.56,6.56ZM229.74,13.13a59.14,59.14,0,0,0-59.08,59.08V151a59.14,59.14,0,0,0,59.08,59.08H347.9a6.56,6.56,0,0,1,4.64,1.92l41.31,41.31v-38a6.56,6.56,0,0,1,5.26-6.43A59.23,59.23,0,0,0,446.36,151V72.21a59.14,59.14,0,0,0-59.08-59.08Z"/><path class="cls-2" d="M374.15,91.9H242.87a6.56,6.56,0,0,1,0-13.13H374.15a6.56,6.56,0,0,1,0,13.13Z"/><path class="cls-2" d="M282.26,144.41H242.87a6.56,6.56,0,0,1,0-13.13h39.38a6.56,6.56,0,0,1,0,13.13Z"/><circle class="cls-4" cx="426.66" cy="380.72" r="45.95"/><path class="cls-2" d="M426.66,433.23a52.51,52.51,0,1,1,52.51-52.51A52.57,52.57,0,0,1,426.66,433.23Zm0-91.9A39.38,39.38,0,1,0,466,380.72,39.43,39.43,0,0,0,426.66,341.33Z"/><path class="cls-4" d="M368.58,505.44c-13.84,0-24.1-13-19.61-25.54,11.06-31,41.67-53.23,77.7-53.23s66.64,22.26,77.7,53.23c4.49,12.56-5.78,25.54-19.61,25.54Z"/><path class="cls-2" d="M484.75,512H368.58A27.59,27.59,0,0,1,346,500.42a24.64,24.64,0,0,1-3.21-22.74c12.3-34.44,46-57.58,83.88-57.58s71.58,23.14,83.88,57.58a24.64,24.64,0,0,1-3.21,22.74A27.59,27.59,0,0,1,484.75,512Zm-58.09-78.77c-32.33,0-61.08,19.64-71.52,48.87a11.59,11.59,0,0,0,1.58,10.76,14.45,14.45,0,0,0,11.85,6H484.75a14.45,14.45,0,0,0,11.85-6,11.6,11.6,0,0,0,1.58-10.76C487.74,452.87,459,433.23,426.66,433.23Z"/><circle class="cls-4" cx="59.08" cy="426.67" r="26.26"/><path class="cls-2" d="M59.08,459.49A32.82,32.82,0,1,1,91.9,426.67,32.86,32.86,0,0,1,59.08,459.49Zm0-52.51a19.69,19.69,0,1,0,19.69,19.69A19.71,19.71,0,0,0,59.08,407Z"/><path class="cls-4" d="M20.35,505.44c-9.23,0-16.07-8.66-13.08-17,7.37-20.64,27.78-35.48,51.8-35.48s44.43,14.84,51.8,35.48c3,8.37-3.85,17-13.08,17Z"/><path class="cls-2" d="M97.8,512H20.36A20.59,20.59,0,0,1,3.5,503.35,18.59,18.59,0,0,1,1.1,486.2c8.51-23.83,31.81-39.84,58-39.84s49.47,16,58,39.84a18.58,18.58,0,0,1-2.4,17.15A20.59,20.59,0,0,1,97.8,512ZM59.08,459.49c-20.64,0-39,12.51-45.62,31.13a5.6,5.6,0,0,0,.78,5.17,7.47,7.47,0,0,0,6.12,3.08H97.8a7.47,7.47,0,0,0,6.12-3.08,5.59,5.59,0,0,0,.78-5.17C98,472,79.72,459.49,59.08,459.49Z"/></svg>