<svg id="Layer_1" data-name="Layer 1" xmlns="http://www.w3.org/2000/svg" viewBox="0 0 184.37 42.83"><defs><style>.cls-1{fill:#00acb4;}.cls-2{fill:#d2aa68;}</style></defs><path class="cls-1" d="M146,231.51H137.3L137,236a5.57,5.57,0,0,1,4.26-1.72,6.49,6.49,0,0,1,4.6,1.78,6,6,0,0,1,1.89,4.6,6.79,6.79,0,0,1-2,5.1,7.9,7.9,0,0,1-5.72,2q-6.39,0-7.9-5.69l4.39-.66A3.16,3.16,0,0,0,139.8,244a3,3,0,0,0,2.33-.91A3,3,0,0,0,143,241a3.12,3.12,0,0,0-3.15-3.13,3.23,3.23,0,0,0-2.87,1.55l-3.82-.63.78-11.34h12.6Z" transform="translate(-96.54 -210.24)"/><path class="cls-1" d="M155.16,227.4v9.4l6.26-9.4h4.49l-4.8,7.14,6,12.86H162l-4-8.68-2.8,4.09v4.59h-4.6v-20Z" transform="translate(-96.54 -210.24)"/><path class="cls-1" d="M176.11,247.71a7.26,7.26,0,0,1-6.25-3,12.11,12.11,0,0,1-2.21-7.33,11.7,11.7,0,0,1,2.24-7.31,7.53,7.53,0,0,1,6.38-2.93,7.16,7.16,0,0,1,6.32,3.12,12.42,12.42,0,0,1,2.13,7.16,12.08,12.08,0,0,1-2.2,7.34A7.46,7.46,0,0,1,176.11,247.71Zm.13-16.79q-3.68,0-3.68,6.47t3.68,6.49c2.38,0,3.57-2.15,3.57-6.47S178.62,230.92,176.24,230.92Z" transform="translate(-96.54 -210.24)"/><path class="cls-1" d="M207.64,231.8l-4,1.33a3.28,3.28,0,0,0-3.41-2.37c-1.85,0-2.78.6-2.78,1.8a1.66,1.66,0,0,0,.52,1.22,5.22,5.22,0,0,0,2.35.86,23.21,23.21,0,0,1,4.48,1.25,5.72,5.72,0,0,1,2.39,2,5.32,5.32,0,0,1,1,3.12,6.25,6.25,0,0,1-2.08,4.69c-1.39,1.32-3.46,2-6.19,2a9.43,9.43,0,0,1-5.23-1.4,6.65,6.65,0,0,1-2.85-4.16l4.34-1q.74,2.81,4.06,2.8a3.87,3.87,0,0,0,2.4-.62,1.84,1.84,0,0,0,.79-1.49,1.55,1.55,0,0,0-.72-1.36,8.54,8.54,0,0,0-2.76-.91,12.61,12.61,0,0,1-5.44-2.16,5,5,0,0,1-1.63-4,6,6,0,0,1,1.94-4.49,7.37,7.37,0,0,1,5.26-1.83Q206,227.1,207.64,231.8Z" transform="translate(-96.54 -210.24)"/><path class="cls-1" d="M216,240v7.43h-4.76v-20h7.88a11.14,11.14,0,0,1,4,.57,6,6,0,0,1,2.5,2,5.76,5.76,0,0,1,1.1,3.56,7.47,7.47,0,0,1-.59,2.89,5.2,5.2,0,0,1-1.66,2.21,6,6,0,0,1-2.07,1.07,13.85,13.85,0,0,1-3.14.26Zm-.16-3.63h3a3.12,3.12,0,0,0,2.45-.81,2.74,2.74,0,0,0,.7-1.84,2.52,2.52,0,0,0-.78-1.94,3.49,3.49,0,0,0-2.38-.71h-3Z" transform="translate(-96.54 -210.24)"/><path class="cls-1" d="M236.86,247.71a7.25,7.25,0,0,1-6.25-3,12,12,0,0,1-2.21-7.33,11.64,11.64,0,0,1,2.24-7.31A7.53,7.53,0,0,1,237,227.1a7.14,7.14,0,0,1,6.31,3.12,12.42,12.42,0,0,1,2.13,7.16,12.08,12.08,0,0,1-2.19,7.34A7.47,7.47,0,0,1,236.86,247.71Zm.13-16.79q-3.69,0-3.69,6.47t3.69,6.49c2.38,0,3.56-2.15,3.56-6.47S239.37,230.92,237,230.92Z" transform="translate(-96.54 -210.24)"/><path class="cls-1" d="M253.24,239.47v7.93h-4.72v-20h8.79a11.11,11.11,0,0,1,3.91.57,5,5,0,0,1,2.44,2.07,6.09,6.09,0,0,1,1,3.35,5.34,5.34,0,0,1-3.47,5.17l3.69,8.84h-5.17l-3.07-7.93Zm0-8.51v5.1h2.87a7.16,7.16,0,0,0,2-.2,2.2,2.2,0,0,0,1.14-.88,2.57,2.57,0,0,0,.5-1.56,2.43,2.43,0,0,0-.5-1.49,2,2,0,0,0-1.08-.81A9.7,9.7,0,0,0,256,231Z" transform="translate(-96.54 -210.24)"/><path class="cls-1" d="M280.91,227.4v4h-5v16h-4.75v-16h-5v-4Z" transform="translate(-96.54 -210.24)"/><path class="cls-2" d="M118,234a19.81,19.81,0,0,0,4.49,2.23c-1.91.56-3.08,1.26-4,1.26s-3.7.29-4.31,0A26.75,26.75,0,0,0,118,234Zm13.27-13.09c.47.41.47,1.7,1.41.7.7-.17,1.05-.64,1.29-.7.88.12.94-.41.94-.71a.56.56,0,0,1,.53-.52c.23,0,.47-.71.58-1.24s.06-2.82-1.46-3.34-2.94-.12-3.29.88-.59,2.11-.88,1.88-.59-.12-.59-.59a4.72,4.72,0,0,0-2-2.41,8.37,8.37,0,0,0-2.53-2.46c-.41-.41-1.17-1.47-1.64-1.53s.06-.47-.41-.53-6.69-.17-8.4,0-3.38-.15-3.93.18c-.29.17-.23.35-.53.41s-.82.59-.79.91c-.53.12-1.06.62-.85.73s1.29-.38,1.61-.26-1.11.82-1.23,1,.09.41.47.29,1.5-.85,2.17-.7.5.2.59.49-.73.65-.7,1.21.32.61.49.26.56-.88,1-.94.54-1.17,1.06-1.55c.35-.27,2.49-.09,3.46.11s3.91,0,4.46.47.27,1.5,1.15,2.21a10.89,10.89,0,0,1,1.93,2.17,20.82,20.82,0,0,0-3.17,3,33.1,33.1,0,0,1-2.23,3.08c0,.47-.76,1.09-1.32,1.29a8,8,0,0,0-1.55,1c-.47,0-.5.09-.68.3a2.15,2.15,0,0,0-.82.82c.24.11.24,0,0,.23a8.28,8.28,0,0,0-1.55,3.11,20.84,20.84,0,0,1-2,2.2c-1.17,1.18-2.2,4.23-2.55,4.58s-3.23,1.91-4,2.82a4.51,4.51,0,0,0-.76,1.5c-.15.15-4,4.28-4.46,4.11a9.73,9.73,0,0,0-2.67-.44,15.14,15.14,0,0,0-.44,2.87,9.92,9.92,0,0,1-.38,2.17c-.15.74-.27,2.56.5,3s1-1.76,1.11-1.85a13.43,13.43,0,0,0,1.79-2.14,13,13,0,0,1,1.85-2.09,73.61,73.61,0,0,1,7-5.6,16.16,16.16,0,0,0,2.4-1.3c.21,1.38,1.15,5.14,2.38,5.32s.7-.71.7-1.29-.17-1.12.12-1.41,0-.85.24-1.27,1-.85,1-1-.5-.24,0-.3,6.23-.09,7.9,0,2.11-.35,2.93-.29,1-.38,1.3-.44a1.83,1.83,0,0,0,.73-2.41,22.41,22.41,0,0,0-5.05-6.54c-.09-1.24-.23-.82,0-1a15,15,0,0,0,2.61-1.59c.65-.67,1.26-.55,1.91-1s1.64-1.59,2-1.65,2.76,3.2,4,3.59.73,1.45,2.73,1.29c.73-.06,1.16-2.87,1.32-3.76.12-.65.41-3.14.47-3.52s.5-1.44.47-1.62a4.18,4.18,0,0,1-.12-1.11,10.87,10.87,0,0,0,0-2c-.09-.09-.53-.2-.47.24a4.22,4.22,0,0,1,0,1.08c-.2,0-.32-1.07-.29-1.39s-.32-1.37-.35,0c-.05,2.32-.09,1.12-.09,1.21-.21.06-.21-.65-.21-.94s.09-1.09-.09-1.18-.52-.06-.49.53.14,1.18.14,1.35v.38c-.17.09-.35-1.11-.35-1.26s-.53-1.56-.44,0,.15,1.12.23,1.32a2.39,2.39,0,0,1,0,1c-.29-.38-.14-.71-.35-.79s-.7-.15-.5.61a5.15,5.15,0,0,0,1.12,1.68,3.55,3.55,0,0,1,0,2c-.18.56-.94,2-1.09,2.61a5.79,5.79,0,0,0-2.14-1.58c-.53-.24.21-1.41-1.61-2.79S131.31,220.9,131.31,220.9Z" transform="translate(-96.54 -210.24)"/></svg>